<svg xmlns="http://www.w3.org/2000/svg" xmlns:xlink="http://www.w3.org/1999/xlink" width="40" zoomAndPan="magnify" viewBox="0 0 30 30.000001" height="40" preserveAspectRatio="xMidYMid meet" version="1.0"><defs><clipPath id="id1"><path d="M 0.484375 0 L 29.515625 0 L 29.515625 29.03125 L 0.484375 29.03125 Z M 0.484375 0 " clip-rule="nonzero"/></clipPath></defs><g clip-path="url(#id1)"><path fill="#ffffff" d="M 0.484375 0 L 29.515625 0 L 29.515625 36.289062 L 0.484375 36.289062 Z M 0.484375 0 " fill-opacity="1" fill-rule="nonzero"/><path fill="#d9d9d9" d="M 0.484375 0 L 29.515625 0 L 29.515625 29.03125 L 0.484375 29.03125 Z M 0.484375 0 " fill-opacity="1" fill-rule="nonzero"/><path fill="#ffffff" d="M 0.484375 0 L 29.515625 0 L 29.515625 29.03125 L 0.484375 29.03125 Z M 0.484375 0 " fill-opacity="1" fill-rule="nonzero"/><path fill="#d9d9d9" d="M 0.484375 0 L 29.515625 0 L 29.515625 29.03125 L 0.484375 29.03125 Z M 0.484375 0 " fill-opacity="1" fill-rule="nonzero"/></g><path stroke-linecap="butt" transform="matrix(0.733833, 0, 0, 0.725806, 13.643656, 17.012722)" fill="none" stroke-linejoin="miter" d="M 0.00119306 -0.0013829 L 7.150089 -0.0013829 " stroke="#000000" stroke-width="1" stroke-opacity="1" stroke-miterlimit="4"/><path stroke-linecap="round" transform="matrix(0.733833, 0, 0, 0.725806, 20.907394, 17.012722)" fill-opacity="1" fill="#000000" fill-rule="nonzero" stroke-linejoin="round" d="M -2.498083 -1.497563 L -0.501928 -0.0013829 L -2.498083 1.50018 Z M -2.498083 -1.497563 " stroke="#000000" stroke-width="1" stroke-opacity="1" stroke-miterlimit="4"/><path stroke-linecap="butt" transform="matrix(0.437895, 0.555555, -0.570023, 0.449298, 7.18955, 11.88423)" fill="none" stroke-linejoin="miter" d="M 0.0000507316 -0.00321786 L 6.49588 -0.00191847 " stroke="#000000" stroke-width="1" stroke-opacity="1" stroke-miterlimit="4"/><path stroke-linecap="round" transform="matrix(0.437895, 0.555555, -0.570023, 0.449298, 11.23776, 17.020174)" fill-opacity="1" fill="#000000" fill-rule="nonzero" stroke-linejoin="round" d="M -2.49864 -1.502365 L -0.499603 -0.000955982 L -2.499666 1.498372 Z M -2.49864 -1.502365 " stroke="#000000" stroke-width="1" stroke-opacity="1" stroke-miterlimit="4"/></svg>